<svg width="206.28812mm" height="206.28815mm" viewBox="0 0 206.28812 206.28815" version="1.1" id="svg1" inkscape:version="1.3 (0e150ed, 2023-07-21)" sodipodi:docname="apple-remote-menu.svg" xmlns:inkscape="http://www.inkscape.org/namespaces/inkscape" xmlns:sodipodi="http://sodipodi.sourceforge.net/DTD/sodipodi-0.dtd" xmlns="http://www.w3.org/2000/svg" xmlns:svg="http://www.w3.org/2000/svg"> <g inkscape:label="Layer 1" inkscape:groupmode="layer" id="layer1" transform="translate(-1.3093108,-46.614401)">
  <path id="path1" style="fill:none;stroke:#000000;stroke-width:15" d="M 200.09744,149.75847 A 95.644066,95.644066 0 0 1 104.45338,245.40253 95.644066,95.644066 0 0 1 8.8093109,149.75847 95.644066,95.644066 0 0 1 104.45338,54.114403 95.644066,95.644066 0 0 1 200.09744,149.75847 Z" />
  <path d="m 29.447659,131.31256 h 10.010595 l 9.349997,25.56004 h 0.152445 l 9.248367,-25.56004 h 10.06141 v 35.97716 h -6.3519 V 138.37587 H 61.816942 L 50.891674,167.28972 H 46.419936 L 35.647114,138.37587 h -0.101631 v 28.91385 h -6.097824 z m 48.072815,0 H 101.3528 v 5.58967 H 83.92319 v 9.14673 h 16.51494 v 5.38642 H 83.92319 v 10.16304 h 18.34429 v 5.6913 H 77.520474 Z m 32.320126,0 h 8.48613 l 16.71821,26.93205 h 0.10163 v -26.93205 h 6.40271 v 35.97716 h -8.13043 L 116.34494,139.4938 h -0.10163 v 27.79592 h -6.40271 z m 69.61849,22.76521 q 0,3.25217 -1.11793,5.89456 -1.11793,2.59157 -3.04891,4.42092 -1.93098,1.82935 -4.57337,2.84565 -2.64239,0.96549 -5.74212,0.96549 -3.09973,0 -5.74212,-0.96549 -2.64239,-1.0163 -4.62418,-2.84565 -1.93098,-1.82935 -3.04891,-4.42092 -1.06712,-2.64239 -1.06712,-5.89456 v -22.76521 h 6.40272 v 22.51113 q 0,1.57527 0.40652,3.15054 0.40652,1.52446 1.32119,2.74402 0.96549,1.21957 2.48995,1.9818 1.57527,0.76222 3.86195,0.76222 2.28669,0 3.81114,-0.76222 1.57527,-0.76223 2.48995,-1.9818 0.96549,-1.21956 1.37201,-2.74402 0.40652,-1.57527 0.40652,-3.15054 v -22.51113 h 6.40271 z" id="text2" style="font-weight:600;font-size:50.8152px;font-family:'Avenir Next';-inkscape-font-specification:'Avenir Next, Semi-Bold';letter-spacing:1.32292px;stroke:#000000;stroke-width:1.44043" aria-label="MENU" />  </g>
</svg>
