<svg width="206.28906mm" height="206.28711mm" viewBox="0 0 206.28907 206.28711" version="1.1" id="svg1" xmlns="http://www.w3.org/2000/svg" xmlns:svg="http://www.w3.org/2000/svg">
  <path style="color:#000000;fill:#000000;-inkscape-stroke:none" d="M 103.14454,0 C 46.268526,-1.0000111e-6 -5.0001465e-7,46.266574 0,103.14258 c 3.5999854e-6,56.876 46.268529,103.14454 103.14454,103.14453 56.87599,0 103.14452,-46.26853 103.14453,-103.14453 C 206.28907,46.266578 160.02054,3.9999889e-6 103.14454,0 Z m 0,15 c 48.7694,3e-6 88.14453,39.373166 88.14453,88.14258 -1e-5,48.76941 -39.37513,88.14453 -88.14453,88.14453 C 54.375123,191.28712 15.000003,151.91199 15,103.14258 14.999999,54.373166 54.37512,14.999999 103.14454,15 Z" id="path10" />
  <path style="color:#000000;-inkscape-font-specification:'Avenir Next, Semi-Bold';display:inline;fill:#000000;-inkscape-stroke:none" d="M 28.139065,84.697326 H 38.14966 l 9.349997,25.560044 h 0.152445 l 9.248367,-25.560044 h 10.06141 v 35.977164 h -6.3519 V 91.760636 H 60.508348 L 49.58308,120.67449 H 45.111342 L 34.33852,91.760636 h -0.101631 v 28.913854 h -6.097824 z m 48.072815,0 h 23.83233 v 5.58967 H 82.614596 v 9.14673 h 16.51494 v 5.386424 h -16.51494 v 10.16304 h 18.344294 v 5.6913 H 76.21188 Z m 32.32013,0 h 8.48613 l 16.71821,26.932054 h 0.10163 V 84.697326 h 6.40271 v 35.977164 h -8.13043 L 115.03635,92.878566 h -0.10163 v 27.795924 h -6.40271 z m 69.61849,22.765214 q 0,3.25217 -1.11793,5.89456 -1.11793,2.59157 -3.04891,4.42092 -1.93098,1.82935 -4.57337,2.84565 -2.64239,0.96549 -5.74212,0.96549 -3.09973,0 -5.74212,-0.96549 -2.64239,-1.0163 -4.62418,-2.84565 -1.93098,-1.82935 -3.04891,-4.42092 -1.06712,-2.64239 -1.06712,-5.89456 V 84.697326 h 6.40272 v 22.511134 q 0,1.57527 0.40652,3.15054 0.40652,1.52446 1.32119,2.74402 0.96549,1.21957 2.48995,1.9818 1.57527,0.76222 3.86195,0.76222 2.28669,0 3.81114,-0.76222 1.57527,-0.76223 2.48995,-1.9818 0.96549,-1.21956 1.37201,-2.74402 0.40652,-1.57527 0.40652,-3.15054 V 84.697326 h 6.40271 z" id="path8" />
</svg>
