<svg width="206.28906mm" height="206.28711mm" viewBox="0 0 206.28907 206.28711" version="1.1" id="svg1" inkscape:version="1.3 (0e150ed, 2023-07-21)" sodipodi:docname="apple-remote-menu.svg" xmlns:inkscape="http://www.inkscape.org/namespaces/inkscape" xmlns:sodipodi="http://sodipodi.sourceforge.net/DTD/sodipodi-0.dtd" xmlns="http://www.w3.org/2000/svg" xmlns:svg="http://www.w3.org/2000/svg"> <g inkscape:label="Layer 1" inkscape:groupmode="layer" id="layer1" transform="translate(-1.3085937,-46.615234)">
  <path style="color:#000000;fill:#000000;-inkscape-stroke:none" d="M 104.45313,46.615234 C 47.57712,46.615233 1.3085932,92.881808 1.3085937,149.75781 c 3.6e-6,56.876 46.2685293,103.14454 103.1445363,103.14453 56.87599,0 103.14452,-46.26853 103.14453,-103.14453 0,-56.875998 -46.26853,-103.142572 -103.14453,-103.142576 z m 0,15 c 48.7694,3e-6 88.14453,39.373166 88.14453,88.142576 -1e-5,48.76941 -39.37513,88.14453 -88.14453,88.14453 -48.769413,1e-5 -88.144533,-39.37512 -88.144536,-88.14453 -1e-6,-48.76941 39.37512,-88.142577 88.144536,-88.142576 z" id="path1" />    <g id="text2">
  <path style="color:#000000;-inkscape-font-specification:'Avenir Next, Semi-Bold';fill:#000000;-inkscape-stroke:none" d="m 29.447659,131.31256 h 10.010595 l 9.349997,25.56004 h 0.152445 l 9.248367,-25.56004 h 10.06141 v 35.97716 h -6.3519 V 138.37587 H 61.816942 L 50.891674,167.28972 H 46.419936 L 35.647114,138.37587 h -0.101631 v 28.91385 h -6.097824 z m 48.072815,0 H 101.3528 v 5.58967 H 83.92319 v 9.14673 h 16.51494 v 5.38642 H 83.92319 v 10.16304 h 18.34429 v 5.6913 H 77.520474 Z m 32.320126,0 h 8.48613 l 16.71821,26.93205 h 0.10163 v -26.93205 h 6.40271 v 35.97716 h -8.13043 L 116.34494,139.4938 h -0.10163 v 27.79592 h -6.40271 z m 69.61849,22.76521 q 0,3.25217 -1.11793,5.89456 -1.11793,2.59157 -3.04891,4.42092 -1.93098,1.82935 -4.57337,2.84565 -2.64239,0.96549 -5.74212,0.96549 -3.09973,0 -5.74212,-0.96549 -2.64239,-1.0163 -4.62418,-2.84565 -1.93098,-1.82935 -3.04891,-4.42092 -1.06712,-2.64239 -1.06712,-5.89456 v -22.76521 h 6.40272 v 22.51113 q 0,1.57527 0.40652,3.15054 0.40652,1.52446 1.32119,2.74402 0.96549,1.21957 2.48995,1.9818 1.57527,0.76222 3.86195,0.76222 2.28669,0 3.81114,-0.76222 1.57527,-0.76223 2.48995,-1.9818 0.96549,-1.21956 1.37201,-2.74402 0.40652,-1.57527 0.40652,-3.15054 v -22.51113 h 6.40271 z" id="path2" />
  <path style="color:#000000;-inkscape-font-specification:'Avenir Next, Semi-Bold';fill:#000000;-inkscape-stroke:none" d="m 28.726562,130.5918 v 0.7207 36.69727 h 7.539063 v -25.91016 l 9.654297,25.91016 h 5.46875 l 9.810547,-25.9629 v 25.9629 h 7.791015 V 130.5918 H 57.703125 l -8.822266,24.38281 -8.919922,-24.38281 z m 48.074219,0 v 0.7207 36.69727 h 26.187499 v -7.13086 H 84.642578 v -8.72266 H 101.1582 v -6.82813 H 84.642578 v -7.70507 h 17.429692 v -7.03125 z m 32.320309,0 v 0.7207 36.69727 h 7.8418 v -26.13282 l 16.05273,26.13282 h 9.25391 V 130.5918 h -7.84375 v 25.28906 L 118.72656,130.5918 Z m 40.65235,0 v 23.48632 c 0,2.24689 0.37126,4.30735 1.12109,6.16407 l 0.002,0.008 0.004,0.008 c 0.78061,1.8096 1.85463,3.36958 3.21484,4.65821 l 0.004,0.004 0.002,0.002 c 1.38958,1.28269 3.01505,2.28043 4.85547,2.98829 l 0.006,0.004 0.006,0.002 c 1.84686,0.67481 3.84702,1.00781 5.98828,1.00781 2.14126,0 4.14338,-0.333 5.99024,-1.00781 l 0.006,-0.002 0.004,-0.004 c 1.84187,-0.70841 3.4525,-1.70757 4.81055,-2.99414 1.36021,-1.28863 2.43423,-2.84861 3.21484,-4.65821 l 0.002,-0.002 v -0.002 c 0.7866,-1.85924 1.17578,-3.92515 1.17578,-6.17579 V 130.5918 h -7.84375 v 23.23242 c 0,0.98631 -0.12731,1.97286 -0.38282,2.96484 -0.24675,0.92535 -0.65669,1.74532 -1.24023,2.48242 l -0.006,0.008 -0.006,0.006 c -0.53392,0.71189 -1.26275,1.29926 -2.22656,1.76562 l -0.004,0.004 -0.006,0.002 c -0.88746,0.44373 -2.04384,0.68555 -3.48828,0.68555 -1.44289,0 -2.61819,-0.24369 -3.54492,-0.69141 -0.92632,-0.46443 -1.66238,-1.05322 -2.23437,-1.77344 -0.55014,-0.73536 -0.94731,-1.55532 -1.19532,-2.48242 v -0.002 c -0.25616,-0.99329 -0.38476,-1.98117 -0.38476,-2.96875 V 130.5918 Z m -119.605471,1.4414 h 8.787109 l 9.349609,25.56055 h 1.16211 l 9.248047,-25.56055 h 8.835937 v 34.53711 H 62.638672 V 137.65625 H 61.318359 L 50.394531,166.57031 H 46.919922 L 36.146484,137.65625 h -1.320312 v 28.91406 h -4.658203 z m 48.072265,0 h 22.392576 v 4.14844 H 83.203125 v 10.58789 H 99.71875 v 3.94531 H 83.203125 v 11.60352 h 18.343755 v 4.25195 H 78.240234 Z m 32.320316,0 h 7.36523 l 16.71875,26.93164 h 1.22266 V 132.0332 h 4.96093 v 34.53711 h -7.00585 l -17.07422,-27.79687 h -1.22461 v 27.79687 h -4.96289 z m 40.65429,0 h 4.96289 v 21.79102 c 0,1.11213 0.14221,2.22366 0.42774,3.33008 l 0.002,0.002 v 0.004 c 0.29335,1.10004 0.77593,2.10293 1.44141,2.99023 l 0.006,0.008 0.006,0.008 c 0.71284,0.90043 1.63309,1.62806 2.73242,2.17773 l 0.004,0.002 0.004,0.002 c 1.17317,0.56765 2.57131,0.83398 4.17578,0.83398 1.602,0 2.98285,-0.2652 4.12696,-0.83594 1.13268,-0.54851 2.05949,-1.27895 2.74414,-2.18945 0.70005,-0.88678 1.20377,-1.89257 1.49804,-2.99609 v -0.004 l 0.002,-0.002 c 0.28552,-1.10642 0.42968,-2.21795 0.42968,-3.33008 V 132.0332 h 4.96094 v 22.04492 c 0,2.08559 -0.35657,3.94934 -1.06055,5.61329 -0.70978,1.644 -1.66745,3.03014 -2.88086,4.17968 -1.21496,1.15102 -2.65165,2.04495 -4.33007,2.69141 -1.6749,0.61124 -3.50059,0.92188 -5.49024,0.92187 -1.98884,0 -3.81198,-0.30917 -5.48633,-0.91992 -1.68096,-0.64709 -3.13887,-1.5457 -4.39062,-2.70117 -1.20966,-1.14784 -2.16667,-2.52982 -2.875,-4.16992 -0.67047,-1.66407 -1.00977,-3.52986 -1.00977,-5.61524 z" id="path3" />    </g>  </g>
</svg>
