<svg version="1.1" id="Ebene_2" x="0px" y="0px" width="201.18555" height="201.18555" viewBox="0 0 201.18554 201.18555" enable-background="new 0 0 201.186 201.183" xml:space="preserve" xmlns="http://www.w3.org/2000/svg" xmlns:svg="http://www.w3.org/2000/svg"><g id="g1" transform="translate(0,-0.00195312)">
  <path id="circle1" d="M 100.59375,0.00195313 A 100.593,100.593 0 0 0 0,100.59375 100.593,100.593 0 0 0 100.59375,201.1875 100.593,100.593 0 0 0 201.18555,100.59375 100.593,100.593 0 0 0 100.59375,0.00195313 Z m -0.008,35.17968787 h 0.0137 c 24.05998,0.106 36.66204,9.148594 45.58203,25.267578 5.049,-3.014997 9.64427,-4.835439 12.94727,-5.898438 6.75299,2.574998 11.55173,9.127555 11.55273,16.810547 0,2.245998 -0.49916,4.363049 -1.16016,6.373047 -4.02599,12.260988 -1.94659,16.357333 -5.43359,21.486328 -3.488,5.127997 -7.44101,6.972577 -13.75,7.517577 2.057,1.15 3.86535,2.69975 5.27734,4.59375 -3.18499,0.526 -6.52808,1.32758 -9.95507,2.39258 2.27899,1.409 4.21084,3.33278 5.58984,5.67578 -3.113,0.488 -6.37452,1.24486 -9.72852,2.25586 -0.201,0.852 -0.39321,1.71217 -0.57421,2.57617 -0.435,2.09 -0.80924,4.23193 -1.11524,6.41992 -1.33,9.54099 -1.17426,14.20643 0.17774,21.85743 -2.657,-0.543 -5.09807,-1.75794 -7.16407,-3.46094 0.106,3.60399 0.43847,7.03352 0.98047,10.22851 -1.617,-0.522 -3.12495,-1.30906 -4.50195,-2.28906 -5.213,9.18199 -16.20572,15.48242 -28.7207,15.48242 h -0.002 -0.0137 c -12.515987,0 -23.511614,-6.29943 -28.724609,-15.48242 -1.374998,0.98 -2.883001,1.76706 -4.5,2.28906 0.541,-3.19599 0.874469,-6.62452 0.980469,-10.22851 -2.065998,1.703 -4.506065,2.91794 -7.164062,3.46094 1.350998,-7.651 1.504779,-12.31644 0.175781,-21.85743 -0.306,-2.18799 -0.678282,-4.32992 -1.113281,-6.41992 -0.181,-0.864 -0.374173,-1.72417 -0.576172,-2.57617 -3.352997,-1.01 -6.616566,-1.76686 -9.726563,-2.25586 1.374999,-2.343 3.308846,-4.26678 5.589844,-5.67578 -3.431997,-1.065 -6.771035,-1.86658 -9.957031,-2.39258 1.411998,-1.893 3.218345,-3.44375 5.277343,-4.59375 -6.307993,-0.545 -10.25905,-2.38958 -13.748047,-7.517577 -3.488996,-5.128995 -1.410504,-9.22534 -5.4375,-21.486328 -0.660999,-2.010998 -1.158203,-4.128049 -1.158203,-6.373047 0,-7.682992 4.797742,-14.235549 11.552735,-16.810547 3.300996,1.062999 7.89827,2.883441 12.947265,5.898438 C 63.92485,44.329235 76.527962,35.286641 100.58594,35.181641 Z M 42.337891,60.126953 c -1.120999,0.613 -2.123048,1.395829 -2.998047,2.298828 l 14.355468,11.994141 c 1.996999,-3.597997 -0.382987,-8.89908 -3.208984,-10.580078 -3.089997,-1.699999 -5.91644,-2.897892 -8.148437,-3.712891 z m 116.490229,0 c -2.23299,0.814999 -5.05739,2.012892 -8.15039,3.712891 -2.82299,1.680998 -5.20502,6.981081 -3.20703,10.580078 l 14.35352,-11.994141 c -0.875,-0.902999 -1.8771,-1.685828 -2.9961,-2.298828 z M 35.845703,69.472656 c -0.096,0.62 -0.146484,1.251673 -0.146484,1.888672 0,1.376999 0.285485,2.888908 0.896484,4.753906 2.091998,6.364994 2.669844,10.778957 3.089844,14.001954 0.424999,3.234996 0.638938,4.610595 1.710937,6.183593 2.158998,3.178997 4.323395,4.534659 8.400391,5.097659 l 1.291016,-2.503909 C 37.328904,91.652538 44.316501,75.594434 45.8125,72.523438 Z m 129.476567,0.002 -9.96875,3.048829 c 1.49799,3.070996 8.48359,19.1291 -5.2754,26.371093 l 1.28711,2.503912 c 4.082,-0.563 6.2433,-1.918665 8.4043,-5.097662 1.072,-1.572998 1.28694,-2.948597 1.71094,-6.183593 0.419,-3.222997 0.99889,-7.63696 3.08789,-14.001954 0.613,-1.865998 0.89844,-3.376954 0.89844,-4.751953 0,-0.636999 -0.0505,-1.268672 -0.14453,-1.888672 z m -47.86915,2.615235 c -9.73599,0 -13.85342,2.535897 -16.85742,8.96289 h -0.002 v 0.140625 h -0.002 c -3.003,-6.425993 -7.122388,-8.96289 -16.859378,-8.96289 -10.02899,0 -18.49519,4.619765 -21.117188,19.46875 -1.835998,10.397994 1.516056,20.878944 10.248047,22.835944 4.277996,-2.13 9.052646,-3.76127 14.181641,-4.82227 -9.221991,4.654 -15.059296,13.90518 -14.279297,24.07617 l 0.0957,1.23438 c 4.977995,9.50599 15.539434,14.49414 27.732425,14.49414 12.21099,0 22.78191,-5.83006 27.75391,-14.87305 l 0.0742,-0.99609 c 0.78099,-10.17299 -5.05631,-19.42123 -14.2793,-24.07422 5.13099,1.06 9.90364,2.69027 14.18164,4.82226 8.73299,-1.95799 12.08304,-12.4419 10.24805,-22.837889 -2.622,-14.844985 -11.08816,-19.46875 -21.11915,-19.46875 z M 82.966797,92.328125 c 1.398722,0.03805 2.926392,0.407079 4.544922,1.287109 1.792998,0.974999 3.417969,4.914063 3.417969,4.914063 l -0.398438,1.619143 c 0,0 -8.713974,4.43679 -14.042969,0.46679 -1.764998,-1.314994 -1.871093,-4.347652 -1.871093,-4.347652 0,0 3.354172,-4.075351 8.349609,-3.939453 z m 35.253903,0.002 c 4.99443,-0.135841 8.34766,3.939453 8.34766,3.939453 0,0 -0.1061,3.032658 -1.87109,4.347662 -5.329,3.96999 -14.04297,-0.4668 -14.04297,-0.4668 l -0.39844,-1.621096 c 0,0 1.63088,-3.940064 3.42187,-4.914063 1.61832,-0.880249 3.14453,-1.24712 4.54297,-1.285156 z m -25.261716,21.982425 3.892578,4.38672 c 0.732,0.821 0.910078,1.90075 0.580079,2.84375 -1.925998,-0.337 -3.743861,-0.98803 -5.25586,-1.95703 l -4.21289,-2.70313 c 1.516998,-1.053 3.195095,-1.92231 4.996093,-2.57031 z m 15.267576,0 c 1.802,0.649 3.4771,1.51731 4.9961,2.57031 l -4.21289,2.70117 c -1.511,0.969 -3.32891,1.62004 -5.25391,1.95704 -0.33,-0.943 -0.15583,-2.02276 0.57617,-2.84375 z m -35.212888,22.70508 0.595703,7.77148 c 0.968999,12.67899 13.022436,22.31446 26.982425,22.31446 h 0.002 v -0.14063 h 0.002 c 13.96099,0 26.01343,-9.63237 26.98242,-22.31836 l 0.58594,-7.60547 c -4.68799,10.20799 -14.31632,17.26758 -27.57031,17.26758 -13.263987,0 -22.894083,-7.07007 -27.580078,-17.28906 z" /></g>
</svg>
